<?xml version="1.0" encoding="utf-8"?>
<!-- Generator: Adobe Illustrator 21.0.0, SVG Export Plug-In . SVG Version: 6.00 Build 0)  -->
<svg version="1.1" id="Layer_1" xmlns="http://www.w3.org/2000/svg" xmlns:xlink="http://www.w3.org/1999/xlink" x="0px" y="0px"
	 viewBox="0 0 94 35" style="enable-background:new 0 0 94 35;" xml:space="preserve">
<style type="text/css">
	.st0{fill:none;}
	.st1{fill:#0097E0;}
</style>
<g id="logo">
	<path class="st0" d="M45.4,11.4c-2.6-0.3-4.9,0.9-6,3.4c-0.6,1.4-0.8,2.9-0.8,4.6c0,0.7,0.1,1.6,0.3,2.6c0.3,1.3,0.8,2.6,1.8,3.5
		c1.7,1.5,3.7,1.7,5.7,1.1c1.9-0.5,3-1.8,3.6-3.6c0.9-2.3,0.9-4.7,0.4-7.1C49.8,13.3,48,11.7,45.4,11.4z"/>
	<path class="st1" d="M50.6,5.4c-3.5-1.2-7-1.3-10.5-0.4c-3.4,0.9-6,2.8-7.9,5.7c-1.6,2.6-2.3,5.5-2.3,8c0,2.4,0.3,4.3,0.9,6.1
		c0.8,2.2,2,4.1,3.8,5.7c1.6,1.4,3.4,2.3,5.4,2.8c3.1,0.7,6.2,0.7,9.3-0.1c3-0.8,5.4-2.4,7.2-4.8c1.9-2.5,2.7-5.4,2.9-8.5
		c0.1-2.5-0.2-4.9-1.2-7.1C56.8,9.2,54.2,6.7,50.6,5.4z M50,23.1c-0.6,1.7-1.8,3.1-3.6,3.6c-2.1,0.6-4,0.3-5.7-1.1
		c-1.1-0.9-1.6-2.2-1.8-3.5c-0.2-0.9-0.3-1.8-0.3-2.6c0-1.7,0.2-3.2,0.8-4.6c1.1-2.6,3.4-3.7,6-3.4c2.6,0.3,4.4,1.9,5,4.6
		C50.9,18.4,50.9,20.8,50,23.1z"/>
	<path class="st1" d="M26.3,9.6c-1.9-2.3-4.5-3.5-7.4-3.8c-1.9-0.2-3.7-0.3-5.6-0.3c-3.4,0-6.9,0-10.3,0c-0.3,0-0.4,0.1-0.4,0.4
		c0,4.5,0,8.9,0,13.4c0,4.5,0,8.9,0,13.4C2.6,32.9,2.7,33,3,33c2.1,0,4.2,0,6.3,0c2.7,0,5.4,0.1,8.1-0.1c1.7-0.1,3.4-0.4,5-1.1
		c2.8-1.3,4.7-3.5,5.7-6.4c1.3-3.5,1.4-7.2,0.6-10.8C28.3,12.9,27.5,11.1,26.3,9.6z M19.5,23.8C19,25,18.1,26,16.8,26.4
		c-0.8,0.3-1.6,0.3-2.4,0.3c-0.9,0-1.8,0-2.8,0c-0.3,0-0.3-0.1-0.3-0.3c0-2.4,0-4.7,0-7.1c0-2.4,0-4.7,0-7.1c0-0.3,0.1-0.4,0.4-0.4
		c1.3,0,2.6,0,3.9,0.1c1.9,0.1,3.3,1.1,4,2.9C20.8,17.8,20.8,20.8,19.5,23.8z"/>
	<path class="st1" d="M89.5,3.4c0-0.3,0.1-0.6,0.1-0.9c0.1-0.4,0.2-0.9,0-1.3c0-0.1-0.1-0.3-0.2-0.2c-0.3,0.1-0.6,0.2-0.9,0.3
		c-0.2,0-0.3,0.3-0.6,0.1c0,0-0.1,0.1-0.1,0.1c-0.7,0.5-1.3,0.9-2,1.4c-2.4,1.7-4.8,3.4-7.2,5.1c-0.1,0.1-0.2,0.1-0.2,0.2
		c0.1,0.2-0.1,0.3-0.2,0.3c-0.4,0.3-0.8,0.5-1.1,0.8c-0.3,0.3-0.3,0.1-0.4-0.1c0,0,0-0.1-0.1-0.1c-0.1,0.3-0.3,0.5-0.4,0.8
		c0,0.2-0.1,0.3-0.1,0.5c-0.1,0.3-0.1,0.6-0.3,0.8c-0.9,1.1-1.7,2.3-2.8,3.2c-0.2,0.1-0.3,0.3-0.4,0.4c-0.1,0.1-0.2,0.1-0.4,0.1
		c-0.5-0.2-1-0.4-1.5-0.6c-0.3-0.1-0.6-0.1-0.8,0.2c-0.3,0.4-0.6,0.7-1,1.1c0-0.2,0-0.3,0-0.4c0-3.1,0-6.3,0-9.4
		c0-0.3-0.1-0.3-0.3-0.3c-2.7,0-5.3,0-8,0c-0.3,0-0.4,0.1-0.4,0.3c0,9,0,17.9,0,26.9c0,0.3,0.1,0.3,0.3,0.3c2.7,0,5.4,0,8,0
		c0.3,0,0.4-0.1,0.4-0.4c0-2,0-3.9,0-5.9c0-0.2,0-0.3,0.1-0.4c1.2-1.4,2.5-2.7,3.7-4.1c0.3-0.3,0.3-0.3,0.5,0.1
		c1.9,3.5,3.8,7,5.8,10.4c0.1,0.2,0.2,0.3,0.5,0.3c3,0,6.1,0,9.1,0c0.1,0,0.2,0,0.3,0c-0.1-0.1-0.1-0.2-0.1-0.2
		c-3.3-5.6-6.7-11.1-10-16.7c-0.1-0.1-0.2-0.2-0.4-0.2c0.3-0.3,0.7-0.6,0.9-0.9c0.6-0.7,1.2-1.4,1.7-2.1c0.1-0.2,0.3-0.3,0.5-0.2
		c0.1,0,0.2,0.1,0.3,0c0.2-0.3,0.4-0.6,0.7-0.8c0.1-0.1,0.2-0.2,0-0.3c-0.2-0.1-0.1-0.3,0-0.4c0.3-0.3,0.6-0.7,0.8-1
		c1.6-1.9,3.2-3.8,4.7-5.7c0.1-0.1,0.1-0.2,0.3-0.2c0.2,0.1,0.2,0.2,0.2,0.3c0,0.2,0,0.5-0.1,0.7c-0.1,2-0.2,3.9-0.4,5.9
		c0,0.1,0,0.2-0.1,0.2c-0.4,0.4-0.4,0.5-0.2,1c0.1,0.3,0.3,0.4,0.7,0.2c0.3-0.1,0.5-0.3,0.3-0.6c-0.1-0.2-0.1-0.4-0.1-0.6
		c0-0.8,0.1-1.6,0.2-2.4c0.1-1.5,0.2-3,0.4-4.5c0-0.2,0.1-0.4,0.1-0.7C89.5,3.8,89.4,3.6,89.5,3.4z M86.6,5.4
		c-1.5,1.6-3,3.2-4.5,4.9c-0.2,0.2-0.3,0.2-0.4,0.1c-0.4-0.2-0.5-0.2-0.8,0.1c-0.1,0.2-0.3,0.3-0.5,0.5c-0.1,0.1-0.2,0.2-0.1,0.4
		c0,0,0,0.1,0,0.1c-0.8,0.3-1.1,1.1-1.7,1.6c-0.1,0.1-0.1,0.2,0,0.3c0.2,0.2,0.1,0.3-0.1,0.3c-0.2,0.1-0.4,0.1-0.5-0.2
		c-0.3-0.5-0.1-0.9,0.1-1.3c0.1-0.2,0.2-0.3,0-0.5c0.2,0,0.3,0,0.5,0.1c0.2,0,0.4,0.1,0.3-0.2c0-0.1,0-0.1,0.1-0.1
		c0.1,0,0.2,0,0.1-0.1c-0.1-0.1-0.1-0.3,0.1-0.3c0.1,0,0-0.1,0-0.1c0,0,0-0.1,0-0.1c0.4-0.4,0-0.6-0.2-0.9c-0.1-0.2-0.1-0.3,0.1-0.4
		C81.7,8,84.3,6.4,87,4.7c0.1,0,0.1-0.1,0.3-0.1C87,4.9,86.8,5.2,86.6,5.4z"/>
	<path class="st1" d="M90.8,3.4C91,3.8,91,3.7,90.6,3.8c-0.2,0-0.4,0-0.5,0c-0.5,0-0.5,0-0.5-0.4c-0.1,0.2,0.1,0.4-0.1,0.7
		c0.4-0.2,0.9-0.1,1.3-0.1C91,3.9,91,4,90.9,4.2c-0.1,0.2-0.2,0.3-0.1,0.6C91.2,4.2,91.2,3.7,90.8,3.4z"/>
	<path class="st1" d="M89.5,3.4c-0.1,0.2,0,0.4-0.1,0.7C89.6,3.8,89.4,3.6,89.5,3.4z"/>
	<path class="st1" d="M79,9.6c-0.2,0.1-0.2,0.2-0.1,0.4c0.1,0.3,0.6,0.5,0.2,0.9c0,0,0,0.1,0,0.1c0,0.1,0,0.1,0,0.1
		c-0.2,0-0.2,0.2-0.1,0.3c0.1,0.1,0,0.1-0.1,0.1c-0.1,0-0.1,0-0.1,0.1c0.1,0.3-0.1,0.3-0.3,0.2c-0.1,0-0.3,0-0.5-0.1
		c0.2,0.2,0.1,0.3,0,0.5c-0.2,0.4-0.4,0.8-0.1,1.3c0.1,0.3,0.3,0.2,0.5,0.2c0.2-0.1,0.3-0.2,0.1-0.3c-0.1-0.1-0.1-0.2,0-0.3
		c0.6-0.5,0.9-1.3,1.7-1.6c0,0,0.1-0.1,0-0.1c-0.1-0.2,0-0.3,0.1-0.4c0.1-0.2,0.3-0.3,0.5-0.5c0.3-0.3,0.4-0.4,0.8-0.1
		c0.2,0.1,0.3,0.1,0.4-0.1c1.5-1.6,3-3.3,4.5-4.9c0.2-0.2,0.4-0.5,0.7-0.8c-0.2,0-0.2,0-0.3,0.1C84.3,6.4,81.7,8,79,9.6z"/>
</g>
</svg>
